# xmcd
#
# Track frame offsets:
#	150
#	90150
#	147902
#	196439
#	241824
#	301441
#
# Disc length: 4590 seconds
#
# Revision: 1
# Processed by: cddbd v1.5.2PL0 Copyright (c) Steve Scherf et al.
# Submitted via: audiograbber 1.83.01
#
DISCID=4511ec06
DTITLE=Gnaw Their Tongues - Lunar Miasma - Mrtyu - Xela - Split
DYEAR=2009
DGENRE=Electronic
TTITLE0=Gnaw Their Tongues - My Womb Is Barren And I Want Revenge 
TTITLE1=Lunar Miasma - Triangles 
TTITLE2=Mrtyu - Prin Apo Ton Thanato 
TTITLE3=Mrtyu - Meta Apo Ton Thanato
TTITLE4=Xela - Al Arwah
TTITLE5=Xela - Al Amlah
EXTD=
EXTT0=
EXTT1=
EXTT2=
EXTT3=
EXTT4=
EXTT5=
PLAYORDER=
